<svg xmlns="http://www.w3.org/2000/svg" width="355.508" height="63.437" viewBox="0 0 355.508 63.437">
  <g id="Layer_2" data-name="Layer 2" transform="translate(0 0.007)">
    <g id="Camada_1" data-name="Camada 1" transform="translate(0 -0.007)">
      <path id="Caminho_205" data-name="Caminho 205" d="M46.341,52.828H17.181l-5.389,10.6H0L31.716,0,63.432,63.432H51.64ZM22.4,42.32H41.023L31.7,23.694Z" transform="translate(0 0.004)" fill="#08b9db"/>
      <path id="Caminho_206" data-name="Caminho 206" d="M122.557,37.013a17.791,17.791,0,0,1-13.071-5.389,17.9,17.9,0,0,1-5.389-13.16,17.682,17.682,0,0,1,5.389-12.981A17.47,17.47,0,0,1,122.557,0h34.369V10.6H122.557a8.26,8.26,0,0,0-3.109.591,7.669,7.669,0,0,0-2.569,1.7,7.5,7.5,0,0,0-1.689,2.569,8.086,8.086,0,0,0,1.689,8.671,7.534,7.534,0,0,0,5.665,2.376h15.813a18.575,18.575,0,0,1,18.569,18.453,17.862,17.862,0,0,1-5.485,13.071,17.817,17.817,0,0,1-13.071,5.389H104.1V52.826h34.272a8.138,8.138,0,0,0,3.109-.591,7.977,7.977,0,0,0,2.569-1.644,7.2,7.2,0,0,0,1.7-2.518,8.228,8.228,0,0,0,.591-3.1,7.643,7.643,0,0,0-2.376-5.581,7.451,7.451,0,0,0-5.575-2.376Z" transform="translate(-37.236 0.006)" fill="#08b9db"/>
      <path id="Caminho_207" data-name="Caminho 207" d="M191.68,0H244.6V10.6H223.493V63.432h-10.6V10.6h-21.2Z" transform="translate(-68.566 0.004)" fill="#08b9db"/>
      <path id="Caminho_208" data-name="Caminho 208" d="M511.92,63.431,499.671,42.319H481.758V63.431H471.25V0h31.716a20.322,20.322,0,0,1,14.895,6.217,20.322,20.322,0,0,1,6.217,14.895,20.553,20.553,0,0,1-3.751,11.979,20.45,20.45,0,0,1-9.32,7.585l13.071,22.756ZM502.966,10.6h-21.2V31.625l21.2.09a10.09,10.09,0,0,0,7.4-3.109,10.193,10.193,0,0,0,3.115-7.5,10.09,10.09,0,0,0-3.109-7.4A10.09,10.09,0,0,0,502.966,10.6Z" transform="translate(-168.572 0.005)" fill="#08b9db"/>
      <rect id="Retângulo_140" data-name="Retângulo 140" width="10.604" height="22.865" transform="translate(221.692 40.571)" fill="#08b9db"/>
      <rect id="Retângulo_141" data-name="Retângulo 141" width="10.604" height="22.743" transform="translate(221.692 0.004)" fill="#08b9db"/>
      <path id="Caminho_209" data-name="Caminho 209" d="M421.11,9.324a31.548,31.548,0,0,0-44.787,0A30.521,30.521,0,0,0,367,31.714a30.342,30.342,0,0,0,9.326,22.4,31.562,31.562,0,0,0,44.787,0,30.014,30.014,0,0,0,9.416-22.4,30.387,30.387,0,0,0-9.416-22.39Z" transform="translate(-131.278 0.007)" fill="#7f3f98"/>
      <path id="Caminho_210" data-name="Caminho 210" d="M312.17,26.385v.032h-24.6V0H279.42V63.432h8.151V37.015h20.765v-.09h42.943V26.385Z" transform="translate(-99.952 0.004)" fill="#08b9db"/>
      <rect id="Retângulo_142" data-name="Retângulo 142" width="7.707" height="3.642" transform="translate(277.038 26.01)" fill="#fbb040"/>
      <rect id="Retângulo_143" data-name="Retângulo 143" width="7.707" height="3.642" transform="translate(277.038 34.2)" fill="#fbb040"/>
      <path id="Caminho_211" data-name="Caminho 211" d="M416.744,55.648h-8.825a13.158,13.158,0,0,1-13.18-13.18,13.158,13.158,0,0,1,13.18-13.18h8.825Zm-8.825-22a8.793,8.793,0,1,0,0,17.586h4.419V33.643Z" transform="translate(-141.202 -10.472)" fill="#fbb040"/>
    </g>
  </g>
</svg>
